<svg xmlns="http://www.w3.org/2000/svg" width="500" height="500" style="width:100%;height:100%;transform:translate3d(0,0,0);content-visibility:visible" viewBox="0 0 500 500"><defs><clipPath id="g"><path d="M0 0h500v500H0z"/></clipPath><clipPath id="q"><path d="M0 0h500v500H0z"/></clipPath><clipPath id="e"><path d="M0 0h500v500H0z"/></clipPath><clipPath id="n"><path d="M0 0h500v500H0z"/></clipPath><clipPath id="f"><path d="M0 0h500v500H0z"/></clipPath><clipPath id="k"><path d="M0 0h500v500H0z"/></clipPath><clipPath id="h"><path d="M0 0h500v500H0z"/></clipPath><filter id="s" width="300%" height="300%" x="-100%" y="-100%"><feGaussianBlur result="filter_result_0" stdDeviation="52.5 52.5"/></filter><filter id="p" width="300%" height="300%" x="-100%" y="-100%"><feGaussianBlur result="filter_result_0" stdDeviation="52.5 52.5"/></filter><filter id="m" width="300%" height="300%" x="-100%" y="-100%"><feGaussianBlur result="filter_result_0" stdDeviation="52.5 52.5"/></filter><filter id="j" width="300%" height="300%" x="-100%" y="-100%"><feGaussianBlur result="filter_result_0" stdDeviation="52.5 52.5"/></filter><mask id="r" mask-type="alpha"><use xmlns:ns1="http://www.w3.org/1999/xlink" ns1:href="#a"/></mask><mask id="o" mask-type="alpha"><use xmlns:ns2="http://www.w3.org/1999/xlink" ns2:href="#b"/></mask><mask id="l" mask-type="alpha"><use xmlns:ns3="http://www.w3.org/1999/xlink" ns3:href="#c"/></mask><mask id="i" mask-type="alpha"><use xmlns:ns4="http://www.w3.org/1999/xlink" ns4:href="#d"/></mask><g id="a" fill-opacity="0" stroke-linecap="round" stroke-linejoin="round" clip-path="url(#e)" style="display:block"><path stroke="#08A88A" stroke-width="12.6" d="M0 0" style="display:block" transform="translate(250 250)"/><path stroke="#121331" stroke-width="3.65" d="M-31.669 6.468c-1.077-3.333-1.708-6.877-1.708-10.573 0-19.161 16.15-34.551 35.592-33.299 16.483 1.061 29.883 14.364 31.07 30.838.31 4.3-.235 8.431-1.383 12.286C26.544 23.707.003 50.2.003 50.2S-24.979 27.166-31.669 6.468z" style="display:block" transform="matrix(3.5 0 0 3.5 250 232.5)"/><path stroke="#08A88A" stroke-width="3.6" d="M15.704-4.103C15.704 4.57 8.673 11.6 0 11.6c-8.673 0-15.704-7.03-15.704-15.703 0-8.673 7.031-15.704 15.704-15.704 8.673 0 15.704 7.031 15.704 15.704z" style="display:block" transform="matrix(3.5 0 0 3.5 250 232.5)"/></g><g id="b" fill-opacity="0" stroke-linecap="round" stroke-linejoin="round" stroke-width="12.6" clip-path="url(#f)" style="display:block"><path stroke="#08A88A" d="M0 0" style="display:block" transform="translate(250 250)"/><g style="display:block"><path stroke="#08A88A" d="M304.963 218.14c0 30.355-24.608 54.96-54.964 54.96-30.355 0-54.964-24.605-54.964-54.96 0-30.356 24.609-54.964 54.964-54.964 30.356 0 54.964 24.608 54.964 54.964z"/><path stroke="#121331" d="M139.158 255.138c-3.77-11.665-5.978-24.07-5.978-37.005 0-67.064 56.525-120.929 124.572-116.547 57.69 3.714 104.59 50.274 108.745 107.933 1.085 15.05-.823 29.509-4.84 43.001C342.902 315.475 250.01 408.2 250.01 408.2s-87.437-80.619-110.852-153.062z"/></g></g><g id="c" fill-opacity="0" stroke-linecap="round" stroke-linejoin="round" stroke-width="12.6" style="display:block"><path stroke="#08A88A" d="M304.963 218.14c0 30.355-24.608 54.96-54.964 54.96-30.355 0-54.964-24.605-54.964-54.96 0-30.356 24.609-54.964 54.964-54.964 30.356 0 54.964 24.608 54.964 54.964z"/><path stroke="#121331" d="M139.158 255.138c-3.77-11.665-5.978-24.07-5.978-37.005 0-67.064 56.525-120.929 124.572-116.547 57.69 3.714 104.59 50.274 108.745 107.933 1.085 15.05-.823 29.509-4.84 43.001C342.902 315.475 250.01 408.2 250.01 408.2s-87.437-80.619-110.852-153.062z"/></g><g id="d" fill-opacity="0" stroke-linecap="round" stroke-linejoin="round" stroke-width="12.6" style="display:block"><path stroke="#08A88A" d="M304.963 218.14c0 30.355-24.608 54.96-54.964 54.96-30.355 0-54.964-24.605-54.964-54.96 0-30.356 24.609-54.964 54.964-54.964 30.356 0 54.964 24.608 54.964 54.964z"/><path stroke="#121331" d="M139.158 255.138c-3.77-11.665-5.978-24.07-5.978-37.005 0-67.064 56.525-120.929 124.572-116.547 57.69 3.714 104.59 50.274 108.745 107.933 1.085 15.05-.823 29.509-4.84 43.001C342.902 315.475 250.01 408.2 250.01 408.2s-87.437-80.619-110.852-153.062z"/></g></defs><g clip-path="url(#g)"><g clip-path="url(#h)" mask="url(#i)" opacity="0" style="display:block"><g filter="url(#j)" transform="rotate(-94 262.075 8.435) scale(2.4)"><path fill="#4AE0EB" d="M0-250c137.975 0 250 112.025 250 250S137.975 250 0 250-250 137.975-250 0-137.975-250 0-250z" class="design"/><path fill="#CA5EED" d="M113.242-295.384c97.478 0 176.5 79.022 176.5 176.5s-79.022 176.5-176.5 176.5c-43.948 0-74.396-34.057-105.29-60.631-37.631-32.369-71.21-62.338-71.21-115.869 0-97.478 79.022-176.5 176.5-176.5z" class="design"/></g></g><g clip-path="url(#k)" mask="url(#l)" opacity="0" style="display:block"><g filter="url(#m)" transform="rotate(-94 262.075 8.435) scale(2.4)"><path fill="#4AE0EB" d="M0-250c137.975 0 250 112.025 250 250S137.975 250 0 250-250 137.975-250 0-137.975-250 0-250z" class="design"/><path fill="#CA5EED" d="M113.242-295.384c97.478 0 176.5 79.022 176.5 176.5s-79.022 176.5-176.5 176.5c-43.948 0-74.396-34.057-105.29-60.631-37.631-32.369-71.21-62.338-71.21-115.869 0-97.478 79.022-176.5 176.5-176.5z" class="design"/></g></g><g clip-path="url(#n)" mask="url(#o)" opacity="0" style="display:block"><g filter="url(#p)" transform="rotate(-94 262.075 8.435) scale(2.4)"><path fill="#4AE0EB" d="M0-250c137.975 0 250 112.025 250 250S137.975 250 0 250-250 137.975-250 0-137.975-250 0-250z" class="design"/><path fill="#CA5EED" d="M113.242-295.384c97.478 0 176.5 79.022 176.5 176.5s-79.022 176.5-176.5 176.5c-43.948 0-74.396-34.057-105.29-60.631-37.631-32.369-71.21-62.338-71.21-115.869 0-97.478 79.022-176.5 176.5-176.5z" class="design"/></g></g><g clip-path="url(#q)" mask="url(#r)" style="display:block"><g filter="url(#s)" transform="rotate(-94 262.075 8.435) scale(2.4)"><path fill="#4AE0EB" d="M0-250c137.975 0 250 112.025 250 250S137.975 250 0 250-250 137.975-250 0-137.975-250 0-250z" class="design"/><path fill="#CA5EED" d="M113.242-295.384c97.478 0 176.5 79.022 176.5 176.5s-79.022 176.5-176.5 176.5c-43.948 0-74.396-34.057-105.29-60.631-37.631-32.369-71.21-62.338-71.21-115.869 0-97.478 79.022-176.5 176.5-176.5z" class="design"/></g></g><path style="display:none"/></g></svg>