<svg width="600" height="800" viewBox="0 0 600 800" fill="none" xmlns="http://www.w3.org/2000/svg">
<path d="M302.85 -0.274994C138.875 -0.274994 0 139.4 0 304.825C0 478.075 160.975 655.25 269.25 779.775C269.675 780.275 287.175 799.7 308.725 799.7H310.625C332.2 799.7 349.575 780.275 350 779.775C451.6 662.975 600 470.35 600 304.825C600 139.375 491.675 -0.274994 302.85 -0.274994ZM312.875 746.225C312 747.1 310.725 748.075 309.6 748.9C308.45 748.1 307.2 747.1 306.275 746.225L293.2 731.175C190.55 613.425 49.975 452.15 49.975 304.8C49.975 166.5 165.775 49.675 302.825 49.675C473.55 49.675 549.975 177.8 549.975 304.8C549.975 416.65 470.2 565.2 312.875 746.225ZM300.875 151.1C218.05 151.1 150.875 218.25 150.875 301.1C150.875 383.95 218.05 451.1 300.875 451.1C383.7 451.1 450.875 383.925 450.875 301.1C450.875 218.275 383.725 151.1 300.875 151.1ZM300.875 401.1C245.725 401.1 199.725 355.15 199.725 300C199.725 244.85 244.575 200 299.725 200C354.9 200 399.725 244.85 399.725 300C399.75 355.15 356.05 401.1 300.875 401.1Z" fill="url(#paint0_linear_0_4)"/>
<defs>
<linearGradient id="paint0_linear_0_4" x1="300" y1="-0.274994" x2="300" y2="799.7" gradientUnits="userSpaceOnUse">
<stop stop-color="#6366F1"/>
<stop offset="0.5" stop-color="#A855F7"/>
<stop offset="1" stop-color="#EC4899"/>
</linearGradient>
</defs>
</svg>
